<mxfile host="app.diagrams.net" modified="2023-08-28T22:14:41.689Z" agent="Mozilla/5.0 (Macintosh; Intel Mac OS X 10_15_7) AppleWebKit/605.1.15 (KHTML, like Gecko) Version/16.3 Safari/605.1.15" etag="59ZcCx_37cz1VwG_r6JD" version="21.6.9" type="github">
  <diagram name="Page-1" id="6Zkwd5M3KuAh5QiwCv1M">
    <mxGraphModel dx="1194" dy="691" grid="1" gridSize="10" guides="1" tooltips="1" connect="1" arrows="1" fold="1" page="1" pageScale="1" pageWidth="850" pageHeight="1100" math="0" shadow="0">
      <root>
        <mxCell id="0" />
        <mxCell id="1" parent="0" />
        <mxCell id="ILJzXNznsKejwd8JNXi--1" value="&lt;p style=&quot;line-height: 100%;&quot;&gt;&lt;/p&gt;&lt;div style=&quot;font-style: normal; font-variant-caps: normal; font-weight: normal; letter-spacing: normal; text-align: start; text-indent: 0px; text-transform: none; word-spacing: 0px; -webkit-text-stroke-width: 0px; text-decoration: none; font-family: &amp;quot;IckyTicket Mono&amp;quot;, Menlo, Monaco, &amp;quot;Courier New&amp;quot;, monospace, &amp;quot;PT Mono&amp;quot;, Menlo, Monaco, &amp;quot;Courier New&amp;quot;, monospace; font-size: 16px; line-height: 120%;&quot;&gt;&lt;div style=&quot;line-height: 120%;&quot;&gt;&lt;div style=&quot;line-height: 120%;&quot;&gt;label_C01181:&lt;/div&gt;&lt;div style=&quot;line-height: 120%;&quot;&gt;&lt;span style=&quot;white-space: pre;&quot;&gt;&amp;nbsp;&amp;nbsp;&amp;nbsp;&amp;nbsp;&lt;/span&gt;REP.b #$31&lt;/div&gt;&lt;div style=&quot;line-height: 120%;&quot;&gt;&lt;span style=&quot;white-space: pre;&quot;&gt;&amp;nbsp;&amp;nbsp;&amp;nbsp;&amp;nbsp;&lt;/span&gt;PHD&lt;/div&gt;&lt;div style=&quot;line-height: 120%;&quot;&gt;&lt;span style=&quot;white-space: pre;&quot;&gt;&amp;nbsp;&amp;nbsp;&amp;nbsp;&amp;nbsp;&lt;/span&gt;PHA&lt;/div&gt;&lt;div style=&quot;line-height: 120%;&quot;&gt;&lt;span style=&quot;white-space: pre;&quot;&gt;&amp;nbsp;&amp;nbsp;&amp;nbsp;&amp;nbsp;&lt;/span&gt;TDC&lt;/div&gt;&lt;div style=&quot;line-height: 120%;&quot;&gt;&lt;span style=&quot;white-space: pre;&quot;&gt;&amp;nbsp;&amp;nbsp;&amp;nbsp;&amp;nbsp;&lt;/span&gt;ADC.w #$FFEC&lt;/div&gt;&lt;div style=&quot;line-height: 120%;&quot;&gt;&lt;span style=&quot;white-space: pre;&quot;&gt;&amp;nbsp;&amp;nbsp;&amp;nbsp;&amp;nbsp;&lt;/span&gt;TCD&lt;/div&gt;&lt;div style=&quot;line-height: 120%;&quot;&gt;&lt;span style=&quot;white-space: pre;&quot;&gt;&amp;nbsp;&amp;nbsp;&amp;nbsp;&amp;nbsp;&lt;/span&gt;PLA&lt;/div&gt;&lt;div style=&quot;line-height: 120%;&quot;&gt;&lt;span style=&quot;white-space: pre;&quot;&gt;&amp;nbsp;&amp;nbsp;&amp;nbsp;&amp;nbsp;&lt;/span&gt;STX.b $02&lt;/div&gt;&lt;div style=&quot;line-height: 120%;&quot;&gt;&lt;span style=&quot;white-space: pre;&quot;&gt;&amp;nbsp;&amp;nbsp;&amp;nbsp;&amp;nbsp;&lt;/span&gt;LDA.w #$0040&lt;/div&gt;&lt;div style=&quot;line-height: 120%;&quot;&gt;&lt;span style=&quot;white-space: pre;&quot;&gt;&amp;nbsp;&amp;nbsp;&amp;nbsp;&amp;nbsp;&lt;/span&gt;JSL.l label_C086DE&lt;/div&gt;&lt;div style=&quot;line-height: 120%;&quot;&gt;&lt;span style=&quot;white-space: pre;&quot;&gt;&amp;nbsp;&amp;nbsp;&amp;nbsp;&amp;nbsp;&lt;/span&gt;TAY&lt;/div&gt;&lt;div style=&quot;line-height: 120%;&quot;&gt;&lt;span style=&quot;white-space: pre;&quot;&gt;&amp;nbsp;&amp;nbsp;&amp;nbsp;&amp;nbsp;&lt;/span&gt;STY.b $12&lt;/div&gt;&lt;div style=&quot;line-height: 120%;&quot;&gt;&lt;span style=&quot;white-space: pre;&quot;&gt;&amp;nbsp;&amp;nbsp;&amp;nbsp;&amp;nbsp;&lt;/span&gt;SEP.b #$20&lt;/div&gt;&lt;div style=&quot;line-height: 120%;&quot;&gt;&lt;span style=&quot;white-space: pre;&quot;&gt;&amp;nbsp;&amp;nbsp;&amp;nbsp;&amp;nbsp;&lt;/span&gt;STZ.b $0E&lt;/div&gt;&lt;div style=&quot;line-height: 120%;&quot;&gt;&lt;span style=&quot;white-space: pre;&quot;&gt;&amp;nbsp;&amp;nbsp;&amp;nbsp;&amp;nbsp;&lt;/span&gt;LDX.w #$0040&lt;/div&gt;&lt;div style=&quot;line-height: 120%;&quot;&gt;&lt;span style=&quot;white-space: pre;&quot;&gt;&amp;nbsp;&amp;nbsp;&amp;nbsp;&amp;nbsp;&lt;/span&gt;REP.b #$20&lt;/div&gt;&lt;div style=&quot;line-height: 120%;&quot;&gt;&lt;span style=&quot;white-space: pre;&quot;&gt;&amp;nbsp;&amp;nbsp;&amp;nbsp;&amp;nbsp;&lt;/span&gt;TYA&lt;/div&gt;&lt;div style=&quot;line-height: 120%;&quot;&gt;&lt;span style=&quot;white-space: pre;&quot;&gt;&amp;nbsp;&amp;nbsp;&amp;nbsp;&amp;nbsp;&lt;/span&gt;JSL.l label_C08EFC&lt;/div&gt;&lt;div style=&quot;line-height: 120%;&quot;&gt;&lt;span style=&quot;white-space: pre;&quot;&gt;&amp;nbsp;&amp;nbsp;&amp;nbsp;&amp;nbsp;&lt;/span&gt;LDA.b $02&lt;/div&gt;&lt;div style=&quot;line-height: 120%;&quot;&gt;&lt;span style=&quot;white-space: pre;&quot;&gt;&amp;nbsp;&amp;nbsp;&amp;nbsp;&amp;nbsp;&lt;/span&gt;AND.w #$001F&lt;/div&gt;&lt;div style=&quot;line-height: 120%;&quot;&gt;&lt;span style=&quot;white-space: pre;&quot;&gt;&amp;nbsp;&amp;nbsp;&amp;nbsp;&amp;nbsp;&lt;/span&gt;ASL&lt;/div&gt;&lt;div style=&quot;line-height: 120%;&quot;&gt;&lt;span style=&quot;white-space: pre;&quot;&gt;&amp;nbsp;&amp;nbsp;&amp;nbsp;&amp;nbsp;&lt;/span&gt;ASL&lt;/div&gt;&lt;div style=&quot;line-height: 120%;&quot;&gt;&lt;span style=&quot;white-space: pre;&quot;&gt;&amp;nbsp;&amp;nbsp;&amp;nbsp;&amp;nbsp;&lt;/span&gt;ASL&lt;/div&gt;&lt;div style=&quot;line-height: 120%;&quot;&gt;&lt;span style=&quot;white-space: pre;&quot;&gt;&amp;nbsp;&amp;nbsp;&amp;nbsp;&amp;nbsp;&lt;/span&gt;ASL&lt;/div&gt;&lt;div style=&quot;line-height: 120%;&quot;&gt;&lt;span style=&quot;white-space: pre;&quot;&gt;&amp;nbsp;&amp;nbsp;&amp;nbsp;&amp;nbsp;&lt;/span&gt;ASL&lt;/div&gt;&lt;div style=&quot;line-height: 120%;&quot;&gt;&lt;span style=&quot;white-space: pre;&quot;&gt;&amp;nbsp;&amp;nbsp;&amp;nbsp;&amp;nbsp;&lt;/span&gt;STA.b $02&lt;/div&gt;&lt;div style=&quot;line-height: 120%;&quot;&gt;&lt;span style=&quot;white-space: pre;&quot;&gt;&amp;nbsp;&amp;nbsp;&amp;nbsp;&amp;nbsp;&lt;/span&gt;LDY.b $12&lt;/div&gt;&lt;div style=&quot;line-height: 120%;&quot;&gt;&lt;span style=&quot;white-space: pre;&quot;&gt;&amp;nbsp;&amp;nbsp;&amp;nbsp;&amp;nbsp;&lt;/span&gt;TYA&lt;/div&gt;&lt;div style=&quot;line-height: 120%;&quot;&gt;&lt;span style=&quot;white-space: pre;&quot;&gt;&amp;nbsp;&amp;nbsp;&amp;nbsp;&amp;nbsp;&lt;/span&gt;STA.b $06&lt;/div&gt;&lt;div style=&quot;line-height: 120%;&quot;&gt;&lt;span style=&quot;white-space: pre;&quot;&gt;&amp;nbsp;&amp;nbsp;&amp;nbsp;&amp;nbsp;&lt;/span&gt;PHB&lt;/div&gt;&lt;div style=&quot;line-height: 120%;&quot;&gt;&lt;span style=&quot;white-space: pre;&quot;&gt;&amp;nbsp;&amp;nbsp;&amp;nbsp;&amp;nbsp;&lt;/span&gt;SEP.b #$20&lt;/div&gt;&lt;div style=&quot;line-height: 120%;&quot;&gt;&lt;span style=&quot;white-space: pre;&quot;&gt;&amp;nbsp;&amp;nbsp;&amp;nbsp;&amp;nbsp;&lt;/span&gt;PLA&lt;/div&gt;&lt;div style=&quot;line-height: 120%;&quot;&gt;&lt;span style=&quot;white-space: pre;&quot;&gt;&amp;nbsp;&amp;nbsp;&amp;nbsp;&amp;nbsp;&lt;/span&gt;STA.b $08&lt;/div&gt;&lt;div style=&quot;line-height: 120%;&quot;&gt;&lt;span style=&quot;white-space: pre;&quot;&gt;&amp;nbsp;&amp;nbsp;&amp;nbsp;&amp;nbsp;&lt;/span&gt;STZ.b $09&lt;/div&gt;&lt;div style=&quot;line-height: 120%;&quot;&gt;&lt;span style=&quot;white-space: pre;&quot;&gt;&amp;nbsp;&amp;nbsp;&amp;nbsp;&amp;nbsp;&lt;/span&gt;REP.b #$20&lt;/div&gt;&lt;div style=&quot;line-height: 120%;&quot;&gt;&lt;span style=&quot;white-space: pre;&quot;&gt;&amp;nbsp;&amp;nbsp;&amp;nbsp;&amp;nbsp;&lt;/span&gt;LDA.b $06&lt;/div&gt;&lt;div style=&quot;line-height: 120%;&quot;&gt;&lt;span style=&quot;white-space: pre;&quot;&gt;&amp;nbsp;&amp;nbsp;&amp;nbsp;&amp;nbsp;&lt;/span&gt;STA.b $0E&lt;/div&gt;&lt;div style=&quot;line-height: 120%;&quot;&gt;&lt;span style=&quot;white-space: pre;&quot;&gt;&amp;nbsp;&amp;nbsp;&amp;nbsp;&amp;nbsp;&lt;/span&gt;LDA.b $08&lt;/div&gt;&lt;div style=&quot;line-height: 120%;&quot;&gt;&lt;span style=&quot;white-space: pre;&quot;&gt;&amp;nbsp;&amp;nbsp;&amp;nbsp;&amp;nbsp;&lt;/span&gt;STA.b $10&lt;/div&gt;&lt;div style=&quot;line-height: 120%;&quot;&gt;&lt;span style=&quot;white-space: pre;&quot;&gt;&amp;nbsp;&amp;nbsp;&amp;nbsp;&amp;nbsp;&lt;/span&gt;LDA.b $02&lt;/div&gt;&lt;div style=&quot;line-height: 120%;&quot;&gt;&lt;span style=&quot;white-space: pre;&quot;&gt;&amp;nbsp;&amp;nbsp;&amp;nbsp;&amp;nbsp;&lt;/span&gt;CLC&lt;/div&gt;&lt;div style=&quot;line-height: 120%;&quot;&gt;&lt;span style=&quot;white-space: pre;&quot;&gt;&amp;nbsp;&amp;nbsp;&amp;nbsp;&amp;nbsp;&lt;/span&gt;ADC.w #$3800&lt;/div&gt;&lt;div style=&quot;line-height: 120%;&quot;&gt;&lt;span style=&quot;white-space: pre;&quot;&gt;&amp;nbsp;&amp;nbsp;&amp;nbsp;&amp;nbsp;&lt;/span&gt;TAY&lt;/div&gt;&lt;div style=&quot;line-height: 120%;&quot;&gt;&lt;span style=&quot;white-space: pre;&quot;&gt;&amp;nbsp;&amp;nbsp;&amp;nbsp;&amp;nbsp;&lt;/span&gt;LDX.w #$0040&lt;/div&gt;&lt;div style=&quot;line-height: 120%;&quot;&gt;&lt;span style=&quot;white-space: pre;&quot;&gt;&amp;nbsp;&amp;nbsp;&amp;nbsp;&amp;nbsp;&lt;/span&gt;SEP.b #$20&lt;/div&gt;&lt;div style=&quot;line-height: 120%;&quot;&gt;&lt;span style=&quot;white-space: pre;&quot;&gt;&amp;nbsp;&amp;nbsp;&amp;nbsp;&amp;nbsp;&lt;/span&gt;LDA.b #$00&lt;/div&gt;&lt;div style=&quot;line-height: 120%;&quot;&gt;&lt;span style=&quot;white-space: pre;&quot;&gt;&amp;nbsp;&amp;nbsp;&amp;nbsp;&amp;nbsp;&lt;/span&gt;JSL.l label_C08616&lt;/div&gt;&lt;div style=&quot;line-height: 120%;&quot;&gt;&lt;span style=&quot;white-space: pre;&quot;&gt;&amp;nbsp;&amp;nbsp;&amp;nbsp;&amp;nbsp;&lt;/span&gt;LDA.b $06&lt;/div&gt;&lt;div style=&quot;line-height: 120%;&quot;&gt;&lt;span style=&quot;white-space: pre;&quot;&gt;&amp;nbsp;&amp;nbsp;&amp;nbsp;&amp;nbsp;&lt;/span&gt;STA.b $0E&lt;/div&gt;&lt;div style=&quot;line-height: 120%;&quot;&gt;&lt;span style=&quot;white-space: pre;&quot;&gt;&amp;nbsp;&amp;nbsp;&amp;nbsp;&amp;nbsp;&lt;/span&gt;LDA.b $08&lt;/div&gt;&lt;div style=&quot;line-height: 120%;&quot;&gt;&lt;span style=&quot;white-space: pre;&quot;&gt;&amp;nbsp;&amp;nbsp;&amp;nbsp;&amp;nbsp;&lt;/span&gt;STA.b $10&lt;/div&gt;&lt;div style=&quot;line-height: 120%;&quot;&gt;&lt;span style=&quot;white-space: pre;&quot;&gt;&amp;nbsp;&amp;nbsp;&amp;nbsp;&amp;nbsp;&lt;/span&gt;LDA.b $02&lt;/div&gt;&lt;div style=&quot;line-height: 120%;&quot;&gt;&lt;span style=&quot;white-space: pre;&quot;&gt;&amp;nbsp;&amp;nbsp;&amp;nbsp;&amp;nbsp;&lt;/span&gt;CLC&lt;/div&gt;&lt;div style=&quot;line-height: 120%;&quot;&gt;&lt;span style=&quot;white-space: pre;&quot;&gt;&amp;nbsp;&amp;nbsp;&amp;nbsp;&amp;nbsp;&lt;/span&gt;ADC.w #$3C00&lt;/div&gt;&lt;div style=&quot;line-height: 120%;&quot;&gt;&lt;span style=&quot;white-space: pre;&quot;&gt;&amp;nbsp;&amp;nbsp;&amp;nbsp;&amp;nbsp;&lt;/span&gt;TAY&lt;/div&gt;&lt;div style=&quot;line-height: 120%;&quot;&gt;&lt;span style=&quot;white-space: pre;&quot;&gt;&amp;nbsp;&amp;nbsp;&amp;nbsp;&amp;nbsp;&lt;/span&gt;LDX.w #$0040&lt;/div&gt;&lt;div style=&quot;line-height: 120%;&quot;&gt;&lt;span style=&quot;white-space: pre;&quot;&gt;&amp;nbsp;&amp;nbsp;&amp;nbsp;&amp;nbsp;&lt;/span&gt;SEP.b #$20&lt;/div&gt;&lt;div style=&quot;line-height: 120%;&quot;&gt;&lt;span style=&quot;white-space: pre;&quot;&gt;&amp;nbsp;&amp;nbsp;&amp;nbsp;&amp;nbsp;&lt;/span&gt;LDA.b #$00&lt;/div&gt;&lt;div style=&quot;line-height: 120%;&quot;&gt;&lt;span style=&quot;white-space: pre;&quot;&gt;&amp;nbsp;&amp;nbsp;&amp;nbsp;&amp;nbsp;&lt;/span&gt;JSL.l label_C08616&lt;/div&gt;&lt;div style=&quot;line-height: 120%;&quot;&gt;&lt;span style=&quot;white-space: pre;&quot;&gt;&amp;nbsp;&amp;nbsp;&amp;nbsp;&amp;nbsp;&lt;/span&gt;LDA.b $06&lt;/div&gt;&lt;div style=&quot;line-height: 120%;&quot;&gt;&lt;span style=&quot;white-space: pre;&quot;&gt;&amp;nbsp;&amp;nbsp;&amp;nbsp;&amp;nbsp;&lt;/span&gt;STA.b $0E&lt;/div&gt;&lt;div style=&quot;line-height: 120%;&quot;&gt;&lt;span style=&quot;white-space: pre;&quot;&gt;&amp;nbsp;&amp;nbsp;&amp;nbsp;&amp;nbsp;&lt;/span&gt;LDA.b $08&lt;/div&gt;&lt;div style=&quot;line-height: 120%;&quot;&gt;&lt;span style=&quot;white-space: pre;&quot;&gt;&amp;nbsp;&amp;nbsp;&amp;nbsp;&amp;nbsp;&lt;/span&gt;STA.b $10&lt;/div&gt;&lt;div style=&quot;line-height: 120%;&quot;&gt;&lt;span style=&quot;white-space: pre;&quot;&gt;&amp;nbsp;&amp;nbsp;&amp;nbsp;&amp;nbsp;&lt;/span&gt;LDA.b $02&lt;/div&gt;&lt;div style=&quot;line-height: 120%;&quot;&gt;&lt;span style=&quot;white-space: pre;&quot;&gt;&amp;nbsp;&amp;nbsp;&amp;nbsp;&amp;nbsp;&lt;/span&gt;CLC&lt;/div&gt;&lt;div style=&quot;line-height: 120%;&quot;&gt;&lt;span style=&quot;white-space: pre;&quot;&gt;&amp;nbsp;&amp;nbsp;&amp;nbsp;&amp;nbsp;&lt;/span&gt;ADC.w #$5800&lt;/div&gt;&lt;div style=&quot;line-height: 120%;&quot;&gt;&lt;span style=&quot;white-space: pre;&quot;&gt;&amp;nbsp;&amp;nbsp;&amp;nbsp;&amp;nbsp;&lt;/span&gt;TAY&lt;/div&gt;&lt;div style=&quot;line-height: 120%;&quot;&gt;&lt;span style=&quot;white-space: pre;&quot;&gt;&amp;nbsp;&amp;nbsp;&amp;nbsp;&amp;nbsp;&lt;/span&gt;LDX.w #$0040&lt;/div&gt;&lt;div style=&quot;line-height: 120%;&quot;&gt;&lt;span style=&quot;white-space: pre;&quot;&gt;&amp;nbsp;&amp;nbsp;&amp;nbsp;&amp;nbsp;&lt;/span&gt;SEP.b #$20&lt;/div&gt;&lt;div style=&quot;line-height: 120%;&quot;&gt;&lt;span style=&quot;white-space: pre;&quot;&gt;&amp;nbsp;&amp;nbsp;&amp;nbsp;&amp;nbsp;&lt;/span&gt;LDA.b #$00&lt;/div&gt;&lt;div style=&quot;line-height: 120%;&quot;&gt;&lt;span style=&quot;white-space: pre;&quot;&gt;&amp;nbsp;&amp;nbsp;&amp;nbsp;&amp;nbsp;&lt;/span&gt;JSL.l label_C08616&lt;/div&gt;&lt;div style=&quot;line-height: 120%;&quot;&gt;&lt;span style=&quot;white-space: pre;&quot;&gt;&amp;nbsp;&amp;nbsp;&amp;nbsp;&amp;nbsp;&lt;/span&gt;LDA.b $06&lt;/div&gt;&lt;div style=&quot;line-height: 120%;&quot;&gt;&lt;span style=&quot;white-space: pre;&quot;&gt;&amp;nbsp;&amp;nbsp;&amp;nbsp;&amp;nbsp;&lt;/span&gt;STA.b $0E&lt;/div&gt;&lt;div style=&quot;line-height: 120%;&quot;&gt;&lt;span style=&quot;white-space: pre;&quot;&gt;&amp;nbsp;&amp;nbsp;&amp;nbsp;&amp;nbsp;&lt;/span&gt;LDA.b $08&lt;/div&gt;&lt;div style=&quot;line-height: 120%;&quot;&gt;&lt;span style=&quot;white-space: pre;&quot;&gt;&amp;nbsp;&amp;nbsp;&amp;nbsp;&amp;nbsp;&lt;/span&gt;STA.b $10&lt;/div&gt;&lt;div style=&quot;line-height: 120%;&quot;&gt;&lt;span style=&quot;white-space: pre;&quot;&gt;&amp;nbsp;&amp;nbsp;&amp;nbsp;&amp;nbsp;&lt;/span&gt;LDA.b $02&lt;/div&gt;&lt;div style=&quot;line-height: 120%;&quot;&gt;&lt;span style=&quot;white-space: pre;&quot;&gt;&amp;nbsp;&amp;nbsp;&amp;nbsp;&amp;nbsp;&lt;/span&gt;CLC&lt;/div&gt;&lt;div style=&quot;line-height: 120%;&quot;&gt;&lt;span style=&quot;white-space: pre;&quot;&gt;&amp;nbsp;&amp;nbsp;&amp;nbsp;&amp;nbsp;&lt;/span&gt;ADC.w #$5C00&lt;/div&gt;&lt;div style=&quot;line-height: 120%;&quot;&gt;&lt;span style=&quot;white-space: pre;&quot;&gt;&amp;nbsp;&amp;nbsp;&amp;nbsp;&amp;nbsp;&lt;/span&gt;TAY&lt;/div&gt;&lt;div style=&quot;line-height: 120%;&quot;&gt;&lt;span style=&quot;white-space: pre;&quot;&gt;&amp;nbsp;&amp;nbsp;&amp;nbsp;&amp;nbsp;&lt;/span&gt;LDX.w #$0040&lt;/div&gt;&lt;div style=&quot;line-height: 120%;&quot;&gt;&lt;span style=&quot;white-space: pre;&quot;&gt;&amp;nbsp;&amp;nbsp;&amp;nbsp;&amp;nbsp;&lt;/span&gt;SEP.b #$20&lt;/div&gt;&lt;div style=&quot;line-height: 120%;&quot;&gt;&lt;span style=&quot;white-space: pre;&quot;&gt;&amp;nbsp;&amp;nbsp;&amp;nbsp;&amp;nbsp;&lt;/span&gt;LDA.b #$00&lt;/div&gt;&lt;div style=&quot;line-height: 120%;&quot;&gt;&lt;span style=&quot;white-space: pre;&quot;&gt;&amp;nbsp;&amp;nbsp;&amp;nbsp;&amp;nbsp;&lt;/span&gt;JSL.l label_C08616&lt;/div&gt;&lt;div style=&quot;line-height: 120%;&quot;&gt;&lt;span style=&quot;white-space: pre;&quot;&gt;&amp;nbsp;&amp;nbsp;&amp;nbsp;&amp;nbsp;&lt;/span&gt;PLD&lt;/div&gt;&lt;div style=&quot;line-height: 120%;&quot;&gt;&lt;span style=&quot;white-space: pre;&quot;&gt;&amp;nbsp;&amp;nbsp;&amp;nbsp;&amp;nbsp;&lt;/span&gt;RTS&lt;/div&gt;&lt;/div&gt;&lt;/div&gt;&lt;p&gt;&lt;/p&gt;" style="text;whiteSpace=wrap;html=1;spacingBottom=0;spacingTop=0;" parent="1" vertex="1">
          <mxGeometry x="230.00000000000003" y="170" width="230" height="750" as="geometry" />
        </mxCell>
        <mxCell id="ILJzXNznsKejwd8JNXi--3" value="SP+0" style="rounded=0;whiteSpace=wrap;html=1;shadow=1;" parent="1" vertex="1">
          <mxGeometry x="445.09000000000003" y="225" width="80" height="20" as="geometry" />
        </mxCell>
        <mxCell id="ILJzXNznsKejwd8JNXi--4" value="SP+2" style="rounded=0;whiteSpace=wrap;html=1;shadow=1;" parent="1" vertex="1">
          <mxGeometry x="445.09000000000003" y="245" width="80" height="20" as="geometry" />
        </mxCell>
        <mxCell id="ILJzXNznsKejwd8JNXi--13" value="" style="endArrow=classic;html=1;rounded=0;entryX=0.783;entryY=0.12;entryDx=0;entryDy=0;entryPerimeter=0;" parent="1" edge="1">
          <mxGeometry width="50" height="50" relative="1" as="geometry">
            <mxPoint x="305" y="235" as="sourcePoint" />
            <mxPoint x="445.0899999999999" y="234.9999999999999" as="targetPoint" />
            <Array as="points" />
          </mxGeometry>
        </mxCell>
        <mxCell id="ILJzXNznsKejwd8JNXi--18" value="" style="endArrow=baseDash;startArrow=baseDash;html=1;rounded=0;startFill=0;endFill=0;endSize=20;startSize=20;" parent="1" edge="1">
          <mxGeometry width="50" height="50" relative="1" as="geometry">
            <mxPoint x="425" y="320" as="sourcePoint" />
            <mxPoint x="425.12" y="265" as="targetPoint" />
          </mxGeometry>
        </mxCell>
        <mxCell id="ILJzXNznsKejwd8JNXi--22" value="DP = DP - 20" style="edgeLabel;html=1;align=center;verticalAlign=middle;resizable=0;points=[];" parent="ILJzXNznsKejwd8JNXi--18" vertex="1" connectable="0">
          <mxGeometry x="0.0427" y="-1" relative="1" as="geometry">
            <mxPoint as="offset" />
          </mxGeometry>
        </mxCell>
        <mxCell id="ILJzXNznsKejwd8JNXi--54" value="A" style="whiteSpace=wrap;html=1;fillColor=#eeeeee;strokeColor=#36393d;" parent="1" vertex="1">
          <mxGeometry x="680" y="200" width="40" height="20" as="geometry" />
        </mxCell>
        <mxCell id="ILJzXNznsKejwd8JNXi--55" value="Return Reg" style="whiteSpace=wrap;html=1;" parent="1" vertex="1">
          <mxGeometry x="720" y="200" width="80" height="20" as="geometry" />
        </mxCell>
        <mxCell id="ILJzXNznsKejwd8JNXi--56" value="" style="endArrow=classic;html=1;rounded=0;entryX=0.783;entryY=0.12;entryDx=0;entryDy=0;entryPerimeter=0;" parent="1" edge="1">
          <mxGeometry width="50" height="50" relative="1" as="geometry">
            <mxPoint x="305.09000000000003" y="255" as="sourcePoint" />
            <mxPoint x="445.09000000000003" y="255" as="targetPoint" />
            <Array as="points" />
          </mxGeometry>
        </mxCell>
        <mxCell id="ILJzXNznsKejwd8JNXi--57" value="SP+2" style="rounded=0;whiteSpace=wrap;html=1;shadow=1;" parent="1" vertex="1">
          <mxGeometry x="110.00000000000006" y="320" width="80" height="20" as="geometry" />
        </mxCell>
        <mxCell id="ILJzXNznsKejwd8JNXi--58" value="" style="endArrow=classic;html=1;rounded=0;entryX=0.783;entryY=0.12;entryDx=0;entryDy=0;entryPerimeter=0;exitX=1;exitY=0.5;exitDx=0;exitDy=0;" parent="1" source="ILJzXNznsKejwd8JNXi--57" edge="1">
          <mxGeometry width="50" height="50" relative="1" as="geometry">
            <mxPoint x="200" y="329.5" as="sourcePoint" />
            <mxPoint x="265.0899999999999" y="329.9999999999999" as="targetPoint" />
            <Array as="points" />
          </mxGeometry>
        </mxCell>
        <mxCell id="ILJzXNznsKejwd8JNXi--61" value="&lt;font style=&quot;font-size: 10px;&quot;&gt;restore (prev x)&lt;/font&gt;" style="text;html=1;align=center;verticalAlign=middle;resizable=0;points=[];autosize=1;strokeColor=#36393d;fillColor=#ffcccc;spacing=0;fontSize=10;rounded=0;glass=0;shadow=0;" parent="1" vertex="1">
          <mxGeometry x="170.00000000000003" y="550" width="90" height="20" as="geometry" />
        </mxCell>
        <mxCell id="H3RAy9jdkwfnNMKRMsMS-4" value="&lt;font style=&quot;font-size: 10px;&quot;&gt;call into asm&lt;/font&gt;" style="text;html=1;align=center;verticalAlign=middle;resizable=0;points=[];autosize=1;strokeColor=#d6b656;fillColor=#fff2cc;spacing=0;fontSize=10;rounded=0;glass=0;shadow=0;" vertex="1" parent="1">
          <mxGeometry x="450.00000000000006" y="380" width="80" height="20" as="geometry" />
        </mxCell>
        <mxCell id="H3RAy9jdkwfnNMKRMsMS-5" value="&lt;font style=&quot;font-size: 10px;&quot;&gt;call into asm&lt;/font&gt;" style="text;html=1;align=center;verticalAlign=middle;resizable=0;points=[];autosize=1;strokeColor=#d6b656;fillColor=#fff2cc;spacing=0;fontSize=10;rounded=0;glass=0;shadow=0;" vertex="1" parent="1">
          <mxGeometry x="450.00000000000006" y="530" width="80" height="20" as="geometry" />
        </mxCell>
        <mxCell id="H3RAy9jdkwfnNMKRMsMS-7" value="SP+2" style="rounded=0;whiteSpace=wrap;html=1;shadow=1;" vertex="1" parent="1">
          <mxGeometry x="104.91000000000005" y="800" width="80" height="20" as="geometry" />
        </mxCell>
        <mxCell id="H3RAy9jdkwfnNMKRMsMS-8" value="" style="endArrow=classic;html=1;rounded=0;entryX=0.783;entryY=0.12;entryDx=0;entryDy=0;entryPerimeter=0;exitX=1;exitY=0.5;exitDx=0;exitDy=0;" edge="1" parent="1" source="H3RAy9jdkwfnNMKRMsMS-7">
          <mxGeometry width="50" height="50" relative="1" as="geometry">
            <mxPoint x="194.91" y="809.5" as="sourcePoint" />
            <mxPoint x="259.99999999999994" y="809.9999999999999" as="targetPoint" />
            <Array as="points" />
          </mxGeometry>
        </mxCell>
        <mxCell id="H3RAy9jdkwfnNMKRMsMS-11" value="SP+2" style="rounded=0;whiteSpace=wrap;html=1;shadow=1;" vertex="1" parent="1">
          <mxGeometry x="445.09000000000003" y="760" width="80" height="20" as="geometry" />
        </mxCell>
        <mxCell id="H3RAy9jdkwfnNMKRMsMS-12" value="" style="endArrow=classic;html=1;rounded=0;entryX=0.783;entryY=0.12;entryDx=0;entryDy=0;entryPerimeter=0;" edge="1" parent="1">
          <mxGeometry width="50" height="50" relative="1" as="geometry">
            <mxPoint x="305.09000000000003" y="770" as="sourcePoint" />
            <mxPoint x="445.09000000000003" y="770" as="targetPoint" />
            <Array as="points" />
          </mxGeometry>
        </mxCell>
        <mxCell id="H3RAy9jdkwfnNMKRMsMS-31" value="" style="group" vertex="1" connectable="0" parent="1">
          <mxGeometry x="680" y="280" width="120" height="200" as="geometry" />
        </mxCell>
        <mxCell id="ILJzXNznsKejwd8JNXi--23" value="" style="rounded=0;whiteSpace=wrap;html=1;" parent="H3RAy9jdkwfnNMKRMsMS-31" vertex="1">
          <mxGeometry x="40" width="80" height="20" as="geometry" />
        </mxCell>
        <mxCell id="ILJzXNznsKejwd8JNXi--24" value="0x0" style="rounded=0;whiteSpace=wrap;html=1;fillColor=#eeeeee;strokeColor=#36393d;" parent="H3RAy9jdkwfnNMKRMsMS-31" vertex="1">
          <mxGeometry width="40" height="20" as="geometry" />
        </mxCell>
        <mxCell id="ILJzXNznsKejwd8JNXi--27" value="0x2" style="rounded=0;whiteSpace=wrap;html=1;fillColor=#eeeeee;strokeColor=#36393d;" parent="H3RAy9jdkwfnNMKRMsMS-31" vertex="1">
          <mxGeometry y="20" width="40" height="20" as="geometry" />
        </mxCell>
        <mxCell id="ILJzXNznsKejwd8JNXi--28" value="0x4" style="rounded=0;whiteSpace=wrap;html=1;fillColor=#eeeeee;strokeColor=#36393d;" parent="H3RAy9jdkwfnNMKRMsMS-31" vertex="1">
          <mxGeometry y="40" width="40" height="20" as="geometry" />
        </mxCell>
        <mxCell id="ILJzXNznsKejwd8JNXi--29" value="0x6" style="rounded=0;whiteSpace=wrap;html=1;fillColor=#eeeeee;strokeColor=#36393d;" parent="H3RAy9jdkwfnNMKRMsMS-31" vertex="1">
          <mxGeometry y="60" width="40" height="20" as="geometry" />
        </mxCell>
        <mxCell id="ILJzXNznsKejwd8JNXi--30" value="0x8" style="rounded=0;whiteSpace=wrap;html=1;fillColor=#eeeeee;strokeColor=#36393d;" parent="H3RAy9jdkwfnNMKRMsMS-31" vertex="1">
          <mxGeometry y="80" width="40" height="20" as="geometry" />
        </mxCell>
        <mxCell id="ILJzXNznsKejwd8JNXi--31" value="0xA" style="rounded=0;whiteSpace=wrap;html=1;fillColor=#eeeeee;strokeColor=#36393d;" parent="H3RAy9jdkwfnNMKRMsMS-31" vertex="1">
          <mxGeometry y="100" width="40" height="20" as="geometry" />
        </mxCell>
        <mxCell id="ILJzXNznsKejwd8JNXi--32" value="0xC" style="rounded=0;whiteSpace=wrap;html=1;fillColor=#eeeeee;strokeColor=#36393d;" parent="H3RAy9jdkwfnNMKRMsMS-31" vertex="1">
          <mxGeometry y="120" width="40" height="20" as="geometry" />
        </mxCell>
        <mxCell id="ILJzXNznsKejwd8JNXi--33" value="0xE" style="rounded=0;whiteSpace=wrap;html=1;fillColor=#eeeeee;strokeColor=#36393d;" parent="H3RAy9jdkwfnNMKRMsMS-31" vertex="1">
          <mxGeometry y="140" width="40" height="20" as="geometry" />
        </mxCell>
        <mxCell id="ILJzXNznsKejwd8JNXi--34" value="0x10" style="rounded=0;whiteSpace=wrap;html=1;fillColor=#eeeeee;strokeColor=#36393d;" parent="H3RAy9jdkwfnNMKRMsMS-31" vertex="1">
          <mxGeometry y="160" width="40" height="20" as="geometry" />
        </mxCell>
        <mxCell id="ILJzXNznsKejwd8JNXi--35" value="X" style="rounded=0;whiteSpace=wrap;html=1;" parent="H3RAy9jdkwfnNMKRMsMS-31" vertex="1">
          <mxGeometry x="80" y="20" width="40" height="20" as="geometry" />
        </mxCell>
        <mxCell id="ILJzXNznsKejwd8JNXi--37" value="" style="rounded=0;whiteSpace=wrap;html=1;" parent="H3RAy9jdkwfnNMKRMsMS-31" vertex="1">
          <mxGeometry x="40" y="40" width="80" height="20" as="geometry" />
        </mxCell>
        <mxCell id="ILJzXNznsKejwd8JNXi--38" value="A" style="rounded=0;whiteSpace=wrap;html=1;" parent="H3RAy9jdkwfnNMKRMsMS-31" vertex="1">
          <mxGeometry x="80" y="60" width="40" height="20" as="geometry" />
        </mxCell>
        <mxCell id="ILJzXNznsKejwd8JNXi--39" value="A" style="rounded=0;whiteSpace=wrap;html=1;" parent="H3RAy9jdkwfnNMKRMsMS-31" vertex="1">
          <mxGeometry x="80" y="80" width="40" height="20" as="geometry" />
        </mxCell>
        <mxCell id="ILJzXNznsKejwd8JNXi--40" value="" style="rounded=0;whiteSpace=wrap;html=1;" parent="H3RAy9jdkwfnNMKRMsMS-31" vertex="1">
          <mxGeometry x="40" y="100" width="80" height="20" as="geometry" />
        </mxCell>
        <mxCell id="ILJzXNznsKejwd8JNXi--41" value="" style="rounded=0;whiteSpace=wrap;html=1;" parent="H3RAy9jdkwfnNMKRMsMS-31" vertex="1">
          <mxGeometry x="40" y="120" width="80" height="20" as="geometry" />
        </mxCell>
        <mxCell id="ILJzXNznsKejwd8JNXi--42" value="0" style="rounded=0;whiteSpace=wrap;html=1;" parent="H3RAy9jdkwfnNMKRMsMS-31" vertex="1">
          <mxGeometry x="80" y="140" width="40" height="20" as="geometry" />
        </mxCell>
        <mxCell id="ILJzXNznsKejwd8JNXi--43" value="A" style="rounded=0;whiteSpace=wrap;html=1;" parent="H3RAy9jdkwfnNMKRMsMS-31" vertex="1">
          <mxGeometry x="80" y="160" width="40" height="20" as="geometry" />
        </mxCell>
        <mxCell id="H3RAy9jdkwfnNMKRMsMS-19" value="0x12" style="rounded=0;whiteSpace=wrap;html=1;fillColor=#eeeeee;strokeColor=#36393d;" vertex="1" parent="H3RAy9jdkwfnNMKRMsMS-31">
          <mxGeometry y="180" width="40" height="20" as="geometry" />
        </mxCell>
        <mxCell id="H3RAy9jdkwfnNMKRMsMS-20" value="Y" style="rounded=0;whiteSpace=wrap;html=1;" vertex="1" parent="H3RAy9jdkwfnNMKRMsMS-31">
          <mxGeometry x="80" y="180" width="40" height="20" as="geometry" />
        </mxCell>
        <mxCell id="H3RAy9jdkwfnNMKRMsMS-21" value="0" style="rounded=0;whiteSpace=wrap;html=1;" vertex="1" parent="H3RAy9jdkwfnNMKRMsMS-31">
          <mxGeometry x="40" y="80" width="40" height="20" as="geometry" />
        </mxCell>
        <mxCell id="H3RAy9jdkwfnNMKRMsMS-22" value="" style="rounded=0;whiteSpace=wrap;html=1;" vertex="1" parent="H3RAy9jdkwfnNMKRMsMS-31">
          <mxGeometry x="40" y="160" width="40" height="20" as="geometry" />
        </mxCell>
        <mxCell id="H3RAy9jdkwfnNMKRMsMS-23" value="" style="rounded=0;whiteSpace=wrap;html=1;" vertex="1" parent="H3RAy9jdkwfnNMKRMsMS-31">
          <mxGeometry x="40" y="60" width="40" height="20" as="geometry" />
        </mxCell>
        <mxCell id="H3RAy9jdkwfnNMKRMsMS-25" value="" style="rounded=0;whiteSpace=wrap;html=1;" vertex="1" parent="H3RAy9jdkwfnNMKRMsMS-31">
          <mxGeometry x="40" y="180" width="40" height="20" as="geometry" />
        </mxCell>
        <mxCell id="H3RAy9jdkwfnNMKRMsMS-26" value="" style="rounded=0;whiteSpace=wrap;html=1;" vertex="1" parent="H3RAy9jdkwfnNMKRMsMS-31">
          <mxGeometry x="40" y="20" width="40" height="20" as="geometry" />
        </mxCell>
        <mxCell id="H3RAy9jdkwfnNMKRMsMS-28" value="" style="rounded=0;whiteSpace=wrap;html=1;" vertex="1" parent="H3RAy9jdkwfnNMKRMsMS-31">
          <mxGeometry x="40" y="140" width="40" height="20" as="geometry" />
        </mxCell>
      </root>
    </mxGraphModel>
  </diagram>
</mxfile>
